<?xml version="1.0" standalone="no"?>
<!DOCTYPE svg PUBLIC "-//W3C//DTD SVG 20010904//EN"
 "http://www.w3.org/TR/2001/REC-SVG-20010904/DTD/svg10.dtd">
<svg version="1.0" xmlns="http://www.w3.org/2000/svg"
 width="500.000000pt" height="500.000000pt" viewBox="0 0 500.000000 500.000000"
 preserveAspectRatio="xMidYMid meet">

<g transform="translate(0.000000,500.000000) scale(0.100000,-0.100000)"
fill="#000000" stroke="none">
<path d="M2331 3923 l-12 -26 -15 21 c-8 12 -22 22 -30 22 -16 0 -15 -20 2
-113 8 -42 27 -20 21 25 -4 33 -3 37 9 27 11 -9 17 -9 28 0 12 10 15 5 21 -30
11 -66 28 -32 20 40 -8 66 -24 79 -44 34z"/>
<path d="M2470 3884 l0 -65 48 3 47 3 5 47 c8 65 -1 78 -55 78 l-45 0 0 -66z
m80 31 c0 -10 -10 -15 -30 -15 -20 0 -30 5 -30 15 0 10 10 15 30 15 20 0 30
-5 30 -15z m-2 -57 c-3 -7 -15 -13 -28 -13 -13 0 -25 6 -27 13 -3 8 6 12 27
12 21 0 30 -4 28 -12z"/>
<path d="M2685 3896 c-26 -44 -33 -86 -15 -86 6 0 10 5 10 10 0 19 48 10 63
-12 l15 -23 7 28 c12 44 -6 108 -32 118 -20 7 -26 2 -48 -35z m55 -22 c0 -25
-7 -28 -34 -18 -14 5 -14 8 0 30 19 28 34 23 34 -12z"/>
<path d="M2104 3899 c-40 -11 -46 -26 -30 -79 15 -51 33 -63 74 -49 38 13 43
26 30 78 -12 49 -31 61 -74 50z m50 -57 c10 -36 -3 -55 -33 -49 -21 3 -36 67
-19 78 23 16 42 5 52 -29z"/>
<path d="M2885 3890 c-3 -5 -14 -34 -25 -65 -15 -44 -16 -55 -5 -55 7 0 17 9
20 20 10 32 32 23 39 -15 8 -40 26 -47 26 -10 0 14 9 34 20 45 35 35 25 53
-44 80 -16 6 -27 6 -31 0z m61 -41 c3 -6 2 -14 -2 -19 -12 -11 -57 7 -49 20 8
13 42 13 51 -1z"/>
<path d="M1903 3824 c-18 -8 -33 -18 -33 -23 0 -24 45 -111 57 -111 8 0 27 7
43 15 32 17 38 40 18 78 -6 12 -14 29 -18 37 -10 20 -29 21 -67 4z m52 -23 c6
-10 -25 -31 -44 -31 -15 0 -14 27 2 33 20 9 35 8 42 -2z m25 -51 c0 -13 -38
-32 -50 -25 -15 10 -12 23 8 28 30 8 42 7 42 -3z"/>
<path d="M3051 3762 l-29 -58 30 -17 c44 -25 66 -21 88 16 29 47 26 74 -12 97
-18 11 -36 20 -40 20 -4 0 -21 -26 -37 -58z m87 3 c5 -4 -31 -75 -38 -75 -3 0
-15 6 -25 14 -19 14 -19 15 -2 50 15 34 19 36 40 25 12 -6 23 -13 25 -14z"/>
<path d="M3260 3701 c0 -6 5 -13 10 -16 14 -9 12 -16 -15 -49 -19 -24 -26 -27
-38 -17 -11 9 -17 9 -22 1 -4 -6 -5 -12 -4 -14 2 -1 21 -14 41 -29 36 -27 62
-22 38 8 -18 21 26 78 51 65 33 -18 29 7 -5 34 -36 27 -56 33 -56 17z"/>
<path d="M1560 3595 c-31 -32 -37 -62 -7 -37 19 16 77 -42 59 -60 -16 -16 -15
-28 1 -28 17 0 79 64 71 73 -3 3 -14 1 -24 -5 -15 -10 -22 -6 -43 18 -16 18
-22 33 -16 39 11 11 12 35 1 35 -4 0 -23 -16 -42 -35z"/>
<path d="M3387 3542 l-47 -48 38 -37 c44 -43 66 -38 25 5 -18 19 -24 31 -17
38 7 7 16 4 29 -10 18 -20 45 -27 45 -12 0 5 -9 17 -20 27 -20 18 -27 45 -12
45 5 0 19 -11 32 -25 13 -14 27 -25 32 -25 18 0 6 28 -25 58 l-33 32 -47 -48z"/>
<path d="M1440 3471 c0 -6 5 -13 10 -16 18 -11 11 -25 -13 -25 -13 0 -31 -6
-41 -13 -17 -12 -14 -17 34 -55 60 -48 94 -46 36 3 -20 17 -34 34 -30 38 13
13 71 7 84 -8 12 -14 30 -12 30 4 0 8 -93 81 -104 81 -3 0 -6 -4 -6 -9z"/>
<path d="M3522 3399 c-29 -22 -50 -45 -46 -50 4 -6 15 -4 29 5 31 20 41 5 25
-35 -15 -36 -5 -51 15 -22 8 11 27 23 43 26 42 9 47 33 16 79 -15 21 -27 38
-28 38 0 0 -25 -19 -54 -41z m66 -20 c19 -29 1 -45 -22 -20 -10 11 -15 25 -11
30 9 16 19 13 33 -10z"/>
<path d="M1315 3310 c-4 -6 1 -17 11 -25 17 -12 15 -14 -19 -28 -20 -9 -37
-20 -37 -25 0 -5 24 -22 52 -38 69 -38 68 -38 68 -22 0 7 -16 22 -35 32 -19
11 -35 23 -35 27 0 14 71 22 83 10 6 -6 15 -11 19 -11 15 0 8 25 -9 36 -10 5
-35 20 -55 32 -24 15 -39 19 -43 12z"/>
<path d="M3684 3237 c5 -20 -1 -26 -30 -41 -34 -16 -37 -16 -49 0 -23 32 -25
-3 -2 -45 24 -45 43 -55 33 -18 -5 20 1 26 30 41 34 16 37 16 49 0 22 -31 27
4 5 46 -22 44 -46 55 -36 17z"/>
<path d="M1201 3088 c-7 -18 -3 -29 16 -50 40 -42 118 -66 86 -26 -15 19 3 62
22 54 9 -3 15 0 15 8 0 17 -51 36 -97 36 -26 0 -36 -5 -42 -22z m79 -20 c-1
-33 -16 -38 -40 -13 l-23 25 31 0 c19 0 32 -5 32 -12z"/>
<path d="M1150 2927 c1 -7 19 -21 42 -32 65 -31 63 -49 -6 -43 -41 3 -56 1
-56 -8 0 -17 46 -25 95 -16 53 10 59 40 16 72 -40 28 -91 43 -91 27z"/>
<path d="M2590 2914 c0 -4 -43 -205 -95 -446 -52 -242 -95 -441 -95 -444 0 -2
6 -4 14 -4 10 0 20 23 30 68 32 142 176 814 176 823 0 5 -7 9 -15 9 -8 0 -15
-3 -15 -6z"/>
<path d="M1123 2723 c-18 -7 -28 -70 -13 -88 8 -10 30 -15 61 -15 43 0 51 3
60 24 18 39 4 72 -32 80 -35 7 -58 7 -76 -1z m87 -53 c0 -25 -4 -30 -24 -30
-40 0 -56 11 -56 36 0 21 4 24 40 24 38 0 40 -2 40 -30z"/>
<path d="M2122 2597 c-67 -67 -122 -127 -122 -132 0 -6 56 -66 125 -135 99
-99 127 -122 137 -112 10 10 -12 37 -105 130 l-117 117 115 115 c107 107 123
129 99 137 -5 2 -64 -52 -132 -120z"/>
<path d="M2754 2708 c-4 -7 40 -55 112 -124 l119 -113 -120 -120 c-95 -96
-117 -123 -107 -133 10 -10 39 14 142 117 l130 130 -127 127 c-70 71 -131 128
-135 128 -4 0 -10 -5 -14 -12z"/>
<path d="M1210 2511 c0 -33 -75 -43 -85 -11 -12 37 -26 21 -23 -27 3 -46 28
-76 28 -34 0 18 6 21 40 21 29 0 40 -4 40 -15 0 -8 7 -15 15 -15 16 0 20 36 9
78 -8 27 -24 29 -24 3z"/>
<path d="M1203 2332 c-17 -2 -23 -10 -23 -28 0 -15 6 -24 15 -24 8 0 15 7 15
16 0 9 6 14 13 12 6 -3 12 -15 12 -28 0 -19 -7 -26 -34 -32 -41 -11 -45 -7
-44 38 1 22 -3 34 -10 31 -17 -5 -20 -52 -7 -78 10 -18 18 -21 57 -16 58 6 75
23 67 65 -7 36 -27 50 -61 44z"/>
<path d="M3722 2077 c-7 -7 -13 -28 -14 -46 -3 -32 -1 -34 51 -52 55 -19 87
-18 37 0 -42 16 -31 43 24 59 33 10 33 10 8 11 -16 1 -37 10 -48 21 -23 23
-43 25 -58 7z m48 -27 c0 -31 -11 -50 -30 -50 -27 0 -30 11 -15 47 15 35 45
37 45 3z"/>
<path d="M3637 1875 c-9 -20 -17 -38 -17 -40 0 -3 26 -18 58 -34 l59 -30 21
45 c12 24 18 44 14 44 -5 0 -16 -16 -25 -35 -15 -31 -20 -34 -37 -25 -19 10
-19 12 -4 41 8 17 13 33 10 36 -2 3 -12 -9 -21 -26 -17 -33 -22 -36 -45 -21
-12 8 -12 13 3 44 9 20 13 36 9 36 -5 0 -16 -16 -25 -35z"/>
<path d="M3541 1712 c-12 -17 -21 -34 -21 -39 0 -9 91 -73 104 -73 5 0 -3 9
-18 21 l-26 20 22 30 c17 23 20 34 12 47 -18 29 -50 26 -73 -6z m57 5 c10 -12
5 -26 -24 -65 -1 -2 -12 1 -23 8 l-22 11 21 30 c24 32 32 35 48 16z"/>
<path d="M3422 1567 c-30 -32 -28 -43 16 -82 44 -41 52 -42 80 -12 30 32 28
48 -11 85 -39 38 -56 40 -85 9z m78 -22 l34 -35 -26 -26 -26 -26 -38 35 -39
35 24 26 c14 14 27 26 31 26 3 0 21 -16 40 -35z"/>
<path d="M3259 1403 c6 -10 25 -35 43 -56 l33 -38 35 30 c39 34 33 42 -8 10
l-27 -21 -32 39 c-18 21 -33 41 -33 46 0 4 -5 7 -10 7 -7 0 -7 -6 -1 -17z"/>
<path d="M1797 1334 c-30 -61 -30 -72 1 -55 29 16 32 14 32 -15 0 -14 5 -24
11 -22 16 5 83 98 71 98 -5 0 -22 -19 -38 -42 -29 -43 -29 -43 -32 -15 -4 30
-5 31 -33 16 -18 -9 -18 -6 6 40 14 28 22 51 17 51 -4 0 -20 -25 -35 -56z"/>
<path d="M3128 1339 c-21 -11 -38 -22 -38 -24 0 -3 14 -30 31 -60 l31 -55 40
21 c22 11 38 23 35 25 -3 3 -20 -2 -37 -11 -27 -14 -34 -15 -41 -3 -13 20 -11
26 16 44 14 9 23 19 21 22 -3 2 -17 -3 -32 -13 -22 -14 -28 -15 -35 -4 -15 24
-10 33 29 56 46 27 30 29 -20 2z"/>
<path d="M1975 1245 c-14 -31 -25 -59 -25 -64 0 -10 81 -43 88 -36 3 3 -11 12
-31 20 -38 16 -41 22 -31 48 5 14 10 14 40 1 19 -8 34 -11 34 -6 0 4 -13 13
-30 19 -32 12 -35 19 -20 43 8 12 13 12 44 -3 20 -9 36 -12 36 -7 0 6 -2 10
-4 10 -2 0 -20 7 -40 15 l-37 16 -24 -56z"/>
<path d="M3007 1218 c5 -56 3 -68 -9 -68 -18 0 -54 38 -63 68 -3 12 -10 22
-15 22 -4 0 -3 -14 3 -30 16 -41 60 -82 79 -75 24 9 30 65 14 111 l-14 39 5
-67z"/>
<path d="M2156 1177 c-8 -34 -11 -66 -7 -70 4 -4 24 -10 43 -14 43 -6 58 14
61 79 2 41 1 42 -40 54 l-41 12 -16 -61z m88 23 c5 -5 6 -16 2 -25 -5 -13 -13
-15 -38 -10 -41 9 -41 9 -33 35 6 18 12 20 33 15 15 -3 31 -10 36 -15z m-26
-50 c6 0 12 -12 12 -26 0 -22 -3 -25 -22 -20 -13 3 -29 6 -35 6 -7 0 -13 12
-13 26 0 22 3 25 23 20 12 -3 28 -6 35 -6z"/>
<path d="M2774 1209 l-42 -10 9 -42 c20 -95 16 -88 57 -81 20 3 42 11 47 16 9
8 -22 5 -62 -7 -7 -2 -15 5 -19 17 -7 23 9 38 44 38 12 0 22 4 22 9 0 5 -15 5
-34 1 -39 -8 -46 -5 -46 21 0 18 19 29 50 29 10 0 22 5 25 10 7 11 5 11 -51
-1z"/>
<path d="M2556 1183 c-15 -4 -17 -11 -12 -41 3 -21 6 -50 6 -65 0 -27 2 -28
41 -25 54 4 65 22 53 85 -8 44 -11 48 -39 50 -16 0 -38 -1 -49 -4z m76 -59 c3
-41 1 -47 -20 -55 -46 -18 -52 -13 -52 46 l0 55 34 0 c33 0 34 -1 38 -46z"/>
</g>
</svg>
